<svg width="337" height="55" viewBox="0 0 337 55" fill="none" xmlns="http://www.w3.org/2000/svg">
<rect x="3.03076" y="16.5" width="21.9769" height="22" fill="#E78818" stroke="white" stroke-width="5"/>
<rect x="29.0085" y="16.5" width="21.9769" height="22" fill="#E78818" stroke="white" stroke-width="5"/>
<rect x="55.9855" y="16.5" width="21.9769" height="22" fill="#E78818" stroke="white" stroke-width="5"/>
<rect x="82.9624" y="16.5" width="21.9769" height="22" fill="#E78818" stroke="white" stroke-width="5"/>
<rect x="109.939" y="16.5" width="21.9769" height="22" fill="#E78818" stroke="white" stroke-width="5"/>
<rect x="136.916" y="16.5" width="21.9769" height="22" fill="#E78818" stroke="white" stroke-width="5"/>
<rect x="163.893" y="16.5" width="21.9769" height="22" fill="#E78818" stroke="white" stroke-width="5"/>
<rect x="190.87" y="16.5" width="21.9769" height="22" fill="#F2F2F2" stroke="white" stroke-width="5"/>
<rect x="217.847" y="16.5" width="21.9769" height="22" fill="#F2F2F2" stroke="white" stroke-width="5"/>
<rect x="244.824" y="16.5" width="21.9769" height="22" fill="#F2F2F2" stroke="white" stroke-width="5"/>
<ellipse cx="308.767" cy="27.5" rx="27.4765" ry="27.5" fill="#E78818"/>
<path d="M295.979 36L301.876 23.0879H294.131V20.2949H305.399V22.3789L299.459 36H295.979ZM307.387 34.4639C307.387 33.7907 307.569 33.318 307.935 33.0459C308.307 32.7738 308.755 32.6377 309.277 32.6377C309.786 32.6377 310.223 32.7738 310.588 33.0459C310.96 33.318 311.146 33.7907 311.146 34.4639C311.146 35.1084 310.96 35.5739 310.588 35.8604C310.223 36.1468 309.786 36.29 309.277 36.29C308.755 36.29 308.307 36.1468 307.935 35.8604C307.569 35.5739 307.387 35.1084 307.387 34.4639ZM318.999 25.9668C319.959 25.9668 320.811 26.1494 321.556 26.5146C322.308 26.8799 322.898 27.417 323.328 28.126C323.758 28.835 323.973 29.7087 323.973 30.7471C323.973 31.8786 323.736 32.8561 323.264 33.6797C322.798 34.4961 322.1 35.1227 321.169 35.5596C320.245 35.9964 319.092 36.2148 317.71 36.2148C316.886 36.2148 316.109 36.1432 315.379 36C314.656 35.8639 314.022 35.6527 313.478 35.3662V32.498C314.022 32.7845 314.673 33.028 315.433 33.2285C316.199 33.4219 316.919 33.5186 317.592 33.5186C318.251 33.5186 318.806 33.4326 319.257 33.2607C319.708 33.0817 320.048 32.8096 320.277 32.4443C320.514 32.0719 320.632 31.5993 320.632 31.0264C320.632 30.2601 320.374 29.6729 319.858 29.2646C319.343 28.8564 318.551 28.6523 317.484 28.6523C317.076 28.6523 316.65 28.6917 316.206 28.7705C315.769 28.8493 315.404 28.9281 315.11 29.0068L313.789 28.2979L314.38 20.2949H322.898V23.1094H317.291L317.001 26.1924C317.244 26.1423 317.509 26.0921 317.796 26.042C318.082 25.9919 318.483 25.9668 318.999 25.9668Z" fill="white"/>
</svg>
